# xmcd
#
# Track frame offsets: 
#        150
#        1707
#        11770
#        23180
#        45207
#        46475
#        64027
#        67317
#        85587
#        105412
#        130857
#        151827
#
# Disc length: 2248 seconds
#
# Revision: 0
# Processed by: cddbd v1.5PL3 Copyright (c) Steve Scherf et al.
# Submitted via: ExactAudioCopy v0.95a4
#
DISCID=8708c60c
DTITLE=yes, mama OK? - CEO
DYEAR=2000
DGENRE=
TTITLE0=telefono#01
TTITLE1=breaches of etiquette -out of order
TTITLE2=in place of my arms
TTITLE3=sun oil
TTITLE4=telefono#02
TTITLE5=steeplechase
TTITLE6=who is the castanet hero?
TTITLE7=CEO(century ends' order)
TTITLE8=a stitch in time saves nine
TTITLE9=theme from "THE BIG OFF"
TTITLE10=an empty room
TTITLE11=days of hellotrope
EXTD=
EXTT0=
EXTT1=
EXTT2=
EXTT3=
EXTT4=
EXTT5=
EXTT6=
EXTT7=
EXTT8=
EXTT9=
EXTT10=
EXTT11=
PLAYORDER=
